<?xml version="1.0" encoding="utf-8"?>
<!-- Generator: Adobe Illustrator 21.1.0, SVG Export Plug-In . SVG Version: 6.00 Build 0)  -->
<svg version="1.1" id="Layer_1" xmlns="http://www.w3.org/2000/svg" xmlns:xlink="http://www.w3.org/1999/xlink" x="0px" y="0px"
	 viewBox="0 0 1920 1080" style="enable-background:new 0 0 1920 1080;"  xml:space="preserve">
<style type="text/css">
	.st0{fill:none;stroke:#000000;stroke-width:2;stroke-miterlimit:10;}
	.st1{stroke:#000000;stroke-miterlimit:10;}
	.st2{fill:none;}
	.st3{font-family:'Rockwell';}
	.st4{font-size:72px;}
	.st5{fill:#FFFFFF;stroke:#000000;stroke-width:2;stroke-miterlimit:10;}
	.st6{font-size:125px;}
	.st7{font-size:64px;}
	.st8{fill:none;stroke:#000000;stroke-miterlimit:10;}
	.st9{fill:none;stroke:#000000;stroke-width:4;stroke-miterlimit:10;}
	.st10{stroke:#000000;stroke-width:2;stroke-miterlimit:10;}
</style>
<polyline class="st0" points="734.3,478.5 756.5,478.5 768,513.3 945.5,513.3 945.5,475.9 1105.3,473.9 "/>
<path class="st1" d="M486.3,465.8l-6.8-10.2l10.7-14.8l11.5,5.2l16.5-15v-16.8l15.2-7.7l14.3,11.8c0,0,34.2-8,55,5.8
	c0,0-4.2-15-51.8-13.2l-0.3-11c0,0,39.8-13,77.2,16l-60.2,74l-8.8-7.2l-15.3,16.7l10.3,10.2l80.6-84.5l59.8-26
	c0,0-4.5,45.3-108.3,92.8L502,575.7L487,556l-15.3,2c0,0-4.2-1-6.7-16.3l10.5-9.2l-1.3-22.5l-10.3-6.8l2-13l14.7-4.5L486.3,465.8z"
	/>
<path class="st0" d="M527,551.7c12.8,12.7,54.4,21,83.5-6.3l12.8-0.1l-0.3,32.8l-6-9.5l-14,8l4.2,10c0,0-5.3,4.5-15.5,6.7l-3.3-11
	c0,0-7,2.2-14.5,2l0.8,12.8l-16.8,0.7l0.3-11.2l-15.5-3l-1.3,10.8l-15.8-6l4.7-10l-12.5-8.1l-7,8.1l-7.1-4.4L527,551.7z"/>
<path class="st1" d="M615.3,514l-47.8,1.5l-0.9,30l57.2-0.2l-1.9,141h34.5l1.7-156C695.2,482.3,613.8,459.1,615.3,514z M641,522
	c-8,0-14.4-6.5-14.4-14.4s6.5-14.4,14.4-14.4s14.4,6.5,14.4,14.4S649,522,641,522z"/>
<rect x="679.2" y="468.4" class="st2" width="412.3" height="89.8"/>
<text transform="matrix(1 0 0 1 679.2056 553.2897)"><tspan x="0" y="0" class="st3 st4">YA </tspan><tspan x="114.8" y="0" class="st5 st3 st6">       </tspan></text>
<rect x="989.8" y="450.5" class="st2" width="259.7" height="114"/>
<text transform="matrix(1 0 0 1 989.7502 499.3498)" class="st5 st3 st4">PY</text>
<rect x="783.4" y="468.8" class="st2" width="218.5" height="88.8"/>
<text transform="matrix(1 0 0 1 783.4167 553.7064)" class="st5 st3 st6">NIT</text>
<rect x="987.5" y="504.5" class="st2" width="60.5" height="55.2"/>
<text transform="matrix(1 0 0 1 987.5 553.3569)" class="st3 st4">H</text>
<line class="st5" x1="688" y1="554.6" x2="1095.3" y2="554.6"/>
<circle class="st0" cx="1100.1" cy="552.9" r="5.1"/>
<polyline class="st0" points="1125.7,568.7 1081.3,570.2 1066,561.7 1066,554.6 "/>
<polyline class="st0" points="1125.7,582 1078.7,583.3 1048.7,566.4 1048.7,554.6 "/>
<polyline class="st0" points="1125.7,595 1078.8,595 1026.2,566.4 1026.2,554.6 "/>
<circle class="st0" cx="1130.2" cy="569" r="5"/>
<circle class="st0" cx="1130.8" cy="581.5" r="4.8"/>
<circle class="st0" cx="1130.8" cy="595" r="4.8"/>
<rect x="743.5" y="563.2" class="st2" width="175" height="65.4"/>
<text transform="matrix(1 0 0 1 743.4584 606.6445)" class="st3 st7">2018</text>
<path class="st8" d="M937.2,606.5"/>
<g id="XMLID_1_">
	<path class="st9" d="M946.9,597.4l10.5,0.2l0.1,10.4l9.2,0v25.7h-5v15l-6,0.3v15.3h-34.8V654H915v-8.7h-5.7V635h-5.3v-11.5h-6.4v-8
		h-5.5V603l11.9,0.2v7.5l7.4-0.2 M922.8,601.3l-0.3-12.5l-0.5-22h-10.7l0.7,49.9 M935.8,607 M935.8,607v-18.2h-13.3 M946.7,610
		l0.5-16.4l-11.3-0.1"/>
</g>
<polyline class="st0" points="1082.1,474.2 1089.4,486.5 1125.8,486.5 "/>
<polyline class="st0" points="1073.5,474.3 1073.5,487.1 1087.2,503.3 1123.5,503.3 "/>
<line class="st0" x1="866.7" y1="513.3" x2="874" y2="529.1"/>
<polyline class="st0" points="911.4,513.3 921.7,526.7 921.7,540 "/>
<path class="st0" d="M889.3,375.2"/>
<path class="st0" d="M890,439.9"/>
<g>
	<path class="st0" d="M860,416.5c49,14.6,51-34.7,31.3-43.7L860,416.5z"/>
	<polyline class="st0" points="863.2,412 855.1,381.7 888.6,376.7 	"/>
	<line class="st0" x1="874.3" y1="396.6" x2="855.1" y2="381.7"/>
	<polyline class="st0" points="880,419.2 891.3,427.3 899.3,407.9 	"/>
	<polyline class="st10" points="892,437.5 880.8,450.1 892,461.1 903,449.6 892,437.5 	"/>
	<circle class="st0" cx="852.3" cy="380" r="3.3"/>
	<polyline class="st0" points="889.4,416.7 891.3,427.3 892,438.2 	"/>
</g>
<circle class="st0" cx="875.1" cy="531.8" r="3"/>
<circle class="st0" cx="921.7" cy="543.4" r="3.3"/>
<circle class="st0" cx="1110.3" cy="473.9" r="5.3"/>
<circle class="st0" cx="1130.2" cy="486.5" r="4.4"/>
<circle class="st0" cx="1128.8" cy="503.3" r="5.1"/>
<g>
	<path class="st0" d="M734.3,428.5l-31.7-0.6 M734.3,438.7l-20.5-0.6 M734.1,450.7h-46.3 M734,462.2l-30.5-0.5 M716.9,474l16.9,0.6
		 M428.6,586.2l33.1-0.9l49.4,45.1l29.3,0.8l7.6-6.5l36.7-0.3l16.8,18.4l10.8,0.6 M617.1,681.9l-21.2-22.7h-35l-21.1-20.3l-39.7,1.4
		l-46-44.4h-25.5 M446.1,602.1v-6.3 M461.1,614.3v-11.8 M475.9,616.8v18.1l25.5,22.7 M534.9,663.8l-22.8-24 M555.1,671.6l-16.9,16.6
		l7.7,7l-12.1,10.6 M545.9,695.2l4.7,5.5l33.3-29.1 M550.6,700.7l13.4,13l11.4-9.7 M547,718.7l11.7-10.1 M575.7,746.7l0.8-20.4
		l15.7-11.8v-21.7 M675.6,660.3v-52 M688.7,605.8v41.7 M700.4,605.8v31 M711.7,604.8v20.3 M723.9,603.2v11.1 M446.1,602.2
		c-2.9,0-5.2,2.3-5.2,5.1c0,2.8,2.3,5.1,5.2,5.1c2.9,0,5.2-2.3,5.2-5.1C451.3,604.5,449,602.2,446.1,602.2z M461.1,614.5
		c-2.8,0-5.1,2.2-5.1,5s2.3,5,5.1,5s5.1-2.2,5.1-5S463.9,614.5,461.1,614.5z M506.1,654.5c-3.3,0-5.9,2.6-5.9,5.8
		c0,3.2,2.7,5.8,5.9,5.8c3.3,0,5.9-2.6,5.9-5.8C512.1,657.2,509.4,654.5,506.1,654.5z M513.7,620.9c-2.5,0-4.4,2-4.4,4.4
		s2,4.4,4.4,4.4s4.4-2,4.4-4.4S516.2,620.9,513.7,620.9z M523.5,620.3c-2.4,0-4.3,1.9-4.3,4.2s1.9,4.2,4.3,4.2s4.3-1.9,4.3-4.2
		S525.9,620.3,523.5,620.3z M533.2,619.9c-2.6,0-4.7,2.1-4.7,4.6s2.1,4.6,4.7,4.6c2.6,0,4.7-2.1,4.7-4.6S535.8,619.9,533.2,619.9z
		 M538.7,662.2c-2.9,0-5.3,2.3-5.3,5.2c0,2.9,2.4,5.2,5.3,5.2c2.9,0,5.3-2.3,5.3-5.2C544,664.6,541.6,662.2,538.7,662.2z
		 M548.8,626.2c-3.1,0-5.6,2.5-5.6,5.5s2.5,5.5,5.6,5.5s5.6-2.5,5.6-5.5S551.9,626.2,548.8,626.2z M559.2,662.4
		c-3.1,0-5.7,2.5-5.7,5.6s2.5,5.6,5.7,5.6c3.1,0,5.7-2.5,5.7-5.6S562.3,662.4,559.2,662.4z M587.6,663.9c-2.7,0-4.8,2.1-4.8,4.7
		c0,2.6,2.2,4.7,4.8,4.7c2.7,0,4.8-2.1,4.8-4.7C592.4,666,590.3,663.9,587.6,663.9z M592.2,681.9c-3.1,0-5.6,2.4-5.6,5.5
		c0,3,2.5,5.5,5.6,5.5s5.6-2.4,5.6-5.5C597.8,684.3,595.3,681.9,592.2,681.9z M579.4,693.8c-3.2,0-5.7,2.5-5.7,5.6
		c0,3.1,2.6,5.6,5.7,5.6c3.2,0,5.7-2.5,5.7-5.6C585.2,696.4,582.6,693.8,579.4,693.8z M620.5,681.6c-2.9,0-5.2,2.3-5.2,5.1
		s2.3,5.1,5.2,5.1s5.2-2.3,5.2-5.1S623.4,681.6,620.5,681.6z M631.8,681.9c-3.1,0-5.6,2.4-5.6,5.5c0,3,2.5,5.5,5.6,5.5
		c3.1,0,5.6-2.4,5.6-5.5C637.4,684.3,634.9,681.9,631.8,681.9z M620.9,692.4c-3.5,0-6.3,2.8-6.3,6.2s2.8,6.2,6.3,6.2
		c3.5,0,6.3-2.8,6.3-6.2S624.4,692.4,620.9,692.4z M616.6,638.3c-2.6,0-4.6,2-4.6,4.6s2.1,4.6,4.6,4.6c2.6,0,4.6-2,4.6-4.6
		S619.1,638.3,616.6,638.3z M675.6,597.9c-3,0-5.4,2.4-5.4,5.3c0,2.9,2.4,5.3,5.4,5.3c3,0,5.4-2.4,5.4-5.3
		C681,600.2,678.6,597.9,675.6,597.9z M688.7,595.5c-3,0-5.4,2.4-5.4,5.3c0,2.9,2.4,5.3,5.4,5.3c3,0,5.4-2.4,5.4-5.3
		C694.1,597.9,691.7,595.5,688.7,595.5z M700,596.5c-2.7,0-4.9,2.1-4.9,4.8s2.2,4.8,4.9,4.8c2.7,0,4.9-2.1,4.9-4.8
		S702.7,596.5,700,596.5z M711.7,594.5c-3,0-5.4,2.4-5.4,5.3c0,2.9,2.4,5.3,5.4,5.3s5.4-2.4,5.4-5.3
		C717.1,596.9,714.7,594.5,711.7,594.5z M723.9,592.1c-3,0-5.4,2.4-5.4,5.3c0,2.9,2.4,5.3,5.4,5.3s5.4-1.4,5.4-6.3
		C729.3,593.5,726.8,592.1,723.9,592.1z M711.5,467.5c-3.2,0-5.8,2.6-5.8,5.8s2.6,5.8,5.8,5.8s5.8-2.6,5.8-5.8
		S714.7,467.5,711.5,467.5z M698.2,456.2c-3,0-5.5,2.4-5.5,5.5s2.4,5.5,5.5,5.5c3,0,5.5-2.4,5.5-5.5S701.2,456.2,698.2,456.2z
		 M682.8,445.9c-2.9,0-5.2,2.3-5.2,5.2c0,2.9,2.3,5.2,5.2,5.2c2.9,0,5.2-2.3,5.2-5.2C688,448.2,685.7,445.9,682.8,445.9z
		 M708.5,432.6c-3,0-5.5,2.5-5.5,5.5s2.5,5.5,5.5,5.5c3,0,5.5-2.5,5.5-5.5S711.5,432.6,708.5,432.6z M697.1,420.7
		c-3,0-5.5,2.5-5.5,5.5s2.5,5.5,5.5,5.5c3,0,5.5-2.5,5.5-5.5S700.1,420.7,697.1,420.7z M428.6,401.4l12.4,10.9v14.5l5.9,4.6l37.1,1
		 M452.4,420.5h-4.6v-9.8l-18.9-16.6 M432.6,387.9l14,13.5h3.8l1.5-2 M467.9,389.6v-4.4l-15.7-15.6 M481.3,389.6v-8.7l-19.1-19.7
		 M488.5,337.2l0.6,29 M500.5,326.4v39.2 M512,316v49 M522.5,306.5v57.6 M532,297.9v82.7 M547.9,283.5v39.3l8.6,9.9h15.6l13.6-14.7
		 M557.8,274.5v14.8v29.3l15-0.8l11.9-13.1 M557.8,288.9l15.5-1.1l9.1-9 M557.8,303.5l14.8-0.5l9.8-9.4 M547.2,341l26.8-1.4l22-21.7
		l0.7-52.5 M650.6,314.8l-40.7,2.4l-35,33.8l-26.9,1.5 M661.7,324.9l-50.7,2.7l-35,34.5l-28,1.1 M673.9,336.1l-61.9,2.3L575.4,374
		l-28.1,1 M606.2,274.1v7.7 M620.4,287.1l-3.5,2.6v12.6 M631,308.1h7.2l2.2-2.6 M456.7,414.6c-2.4,0-4.3,1.9-4.3,4.2
		c0,2.3,1.9,4.2,4.3,4.2c2.4,0,4.3-1.9,4.3-4.2C461,416.5,459,414.6,456.7,414.6z M479.7,413.6c-2.7,0-4.8,2.1-4.8,4.7
		s2.2,4.7,4.8,4.7s4.8-2.1,4.8-4.7S482.4,413.6,479.7,413.6z M479.7,402.7c-2.7,0-4.8,2.1-4.8,4.7s2.2,4.7,4.8,4.7s4.8-2.1,4.8-4.7
		S482.4,402.7,479.7,402.7z M480.2,389.1c-3,0-5.3,2.3-5.3,5.2c0,2.9,2.4,5.2,5.3,5.2c3,0,5.3-2.3,5.3-5.2
		C485.6,391.4,483.2,389.1,480.2,389.1z M467.9,389.7c-3,0-5.4,2.4-5.4,5.3s2.4,5.3,5.4,5.3c3,0,5.4-2.4,5.4-5.3
		S470.9,389.7,467.9,389.7z M455.9,391.4c-2.8,0-5.1,2.2-5.1,4.9s2.3,4.9,5.1,4.9c2.8,0,5.1-2.2,5.1-4.9S458.7,391.4,455.9,391.4z
		 M455.9,402.7c-3.1,0-5.5,2.4-5.5,5.4s2.5,5.4,5.5,5.4c3.1,0,5.5-2.4,5.5-5.4S458.9,402.7,455.9,402.7z M488.8,366.3
		c-2.6,0-4.8,2.1-4.8,4.7c0,2.6,2.1,4.7,4.8,4.7s4.8-2.1,4.8-4.7C493.6,368.4,491.4,366.3,488.8,366.3z M500.5,365.4
		c-2.4,0-4.3,1.9-4.3,4.2s1.9,4.2,4.3,4.2s4.3-1.9,4.3-4.2S502.8,365.4,500.5,365.4z M512,365.5c-2.3,0-4.2,1.8-4.2,4.1
		s1.9,4.1,4.2,4.1c2.3,0,4.2-1.8,4.2-4.1S514.3,365.5,512,365.5z M522.5,364.2c-2.4,0-4.4,1.9-4.4,4.2c0,2.3,2,4.2,4.4,4.2
		c2.4,0,4.4-1.9,4.4-4.2C526.8,366.1,524.9,364.2,522.5,364.2z M542.4,336.9c-2.4,0-4.3,1.9-4.3,4.2c0,2.3,1.9,4.2,4.3,4.2
		c2.4,0,4.3-1.9,4.3-4.2C546.7,338.7,544.8,336.9,542.4,336.9z M543.2,347.9c-2.6,0-4.7,2-4.7,4.6c0,2.5,2.1,4.6,4.7,4.6
		c2.6,0,4.7-2,4.7-4.6C547.9,349.9,545.8,347.9,543.2,347.9z M542.4,358c-3,0-5.3,2.3-5.3,5.2s2.4,5.2,5.3,5.2c3,0,5.3-2.3,5.3-5.2
		S545.3,358,542.4,358z M542.4,370.6c-2.8,0-5.1,2.2-5.1,5s2.3,5,5.1,5s5.1-2.2,5.1-5S545.2,370.6,542.4,370.6z M532.9,380.7
		c-2.9,0-5.2,2.3-5.2,5.1s2.3,5.1,5.2,5.1c2.9,0,5.2-2.3,5.2-5.1S535.8,380.7,532.9,380.7z M585.7,271.3c-2.3,0-4.2,1.8-4.2,4.1
		s1.9,4.1,4.2,4.1c2.3,0,4.2-1.8,4.2-4.1S588,271.3,585.7,271.3z M585.7,284.9c-2.7,0-4.8,2.1-4.8,4.7s2.2,4.7,4.8,4.7
		c2.7,0,4.8-2.1,4.8-4.7S588.3,284.9,585.7,284.9z M588.1,295.5c-2.8,0-5.1,2.2-5.1,4.9s2.3,4.9,5.1,4.9c2.8,0,5.1-2.2,5.1-4.9
		S590.9,295.5,588.1,295.5z M588.1,308.5c-2.6,0-4.7,2-4.7,4.6c0,2.5,2.1,4.6,4.7,4.6c2.6,0,4.7-2,4.7-4.6
		C592.8,310.5,590.7,308.5,588.1,308.5z M606.2,282c-2.6,0-4.7,2.1-4.7,4.6s2.1,4.6,4.7,4.6s4.7-2.1,4.7-4.6S608.8,282,606.2,282z
		 M606.2,292.5c-2.9,0-5.3,2.3-5.3,5.2c0,2.9,2.4,5.2,5.3,5.2s5.3-2.3,5.3-5.2C611.5,294.8,609.1,292.5,606.2,292.5z M605.6,303.3
		c-2.9,0-5.3,2.3-5.3,5.2c0,2.9,2.4,5.2,5.3,5.2c2.9,0,5.3-2.3,5.3-5.2C610.9,305.6,608.5,303.3,605.6,303.3z M616.3,302.4
		c-2.7,0-4.9,2.1-4.9,4.7s2.2,4.7,4.9,4.7c2.7,0,4.9-2.1,4.9-4.7S619,302.4,616.3,302.4z M627,303.2c-2.3,0-4.1,1.8-4.1,4
		c0,2.2,1.8,4,4.1,4c2.3,0,4.1-1.8,4.1-4C631,304.9,629.2,303.2,627,303.2z M488.3,426.8c-2.5,0-4.6,2-4.6,4.5s2.1,4.5,4.6,4.5
		c2.5,0,4.6-2,4.6-4.5S490.9,426.8,488.3,426.8z"/>
	<polyline class="st0" points="670.5,564.3 734.3,564.3 734.3,603.2 581.6,752.5 428.6,603.2 428.6,391.4 582.4,252.3 734.3,391.4 
		734.3,496.7 675,496.7 	"/>
</g>
<path class="st1" d="M592.2,545.7c0,0-27.9,18.5-57.4-1.9l-7.8,7.9c17.6,14.8,56.3,18.2,82.7-5.5L592.2,545.7z M531.4,551.3l3.6-4.8
	l1.8,1.4l-3.6,4.8L531.4,551.3z M538.9,556l-2-1.1l2.8-5.3l2,1.1L538.9,556z M545.1,558.6l-2.2-0.8l2.1-5.6l2.2,0.8L545.1,558.6z
	 M551.5,560.1l-2.3-0.3l0.9-5.9l2.3,0.3L551.5,560.1z"/>
</svg>
